<svg width="649" height="649" viewBox="0 0 649 649" fill="none" xmlns="http://www.w3.org/2000/svg">
<path d="M300.363 647.275C266.363 644.875 229.363 635.875 198.863 622.475C187.263 617.375 171.463 609.575 164.663 605.475L160.863 603.175L160.663 489.075C160.263 306.975 160.163 310.475 164.463 287.875C169.563 261.075 184.463 233.375 205.563 211.375C228.163 187.775 254.663 172.275 285.863 164.275C298.263 161.075 323.263 157.975 327.663 158.975C335.163 160.775 339.563 167.675 338.563 176.175C338.163 179.875 337.363 181.475 334.463 184.075C330.463 187.775 330.363 187.775 315.163 189.275C266.463 194.175 224.463 222.875 203.063 265.875C198.863 274.475 196.163 282.075 192.663 295.375C190.563 303.675 190.463 305.475 190.163 371.375C189.963 408.475 190.163 471.775 190.563 511.875L191.363 584.875L198.863 588.575C225.163 601.475 258.663 611.475 290.863 615.975C306.563 618.275 348.463 618.575 362.863 616.575C421.863 608.375 469.663 586.875 515.363 547.975C566.263 504.675 602.963 440.875 615.363 374.375C621.563 340.975 621.363 300.275 614.963 267.375C607.863 231.575 591.863 192.875 572.163 163.875L568.763 158.875L569.063 249.375C569.263 318.875 569.063 341.875 568.063 348.375C564.063 374.875 558.863 394.675 550.463 415.375C523.663 480.475 468.563 532.275 401.863 554.775C381.563 561.575 363.663 565.275 340.463 567.475C326.763 568.675 321.163 568.175 317.263 565.175C310.063 559.375 310.163 546.375 317.563 540.975C319.663 539.375 322.763 538.875 332.463 538.175C378.363 535.375 418.863 520.575 454.363 493.875C465.063 485.775 482.363 468.975 491.263 458.075C513.063 430.975 528.563 398.275 535.163 365.175C540.163 340.375 540.163 339.575 539.463 208.575C539.063 141.275 538.563 84.975 538.163 83.275C537.763 81.275 537.963 80.375 538.863 80.375C541.063 80.375 571.863 112.275 580.463 123.375C618.163 172.275 637.963 219.875 646.563 282.275C648.963 299.975 648.963 346.675 646.463 364.375C641.163 403.075 631.163 436.575 615.163 469.075C590.463 519.575 554.763 559.775 506.363 591.875C456.863 624.675 402.863 642.975 342.363 647.375C326.663 648.475 317.863 648.475 300.363 647.275Z" fill="#0BDAC5"/>
<path d="M97 554.5C89.1 546.9 82.5 539.4 82 538.5C81.5 537.6 76.5 532.3 71.5 526C24.2 466.8 -1.33713 388.575 1.16287 315.875C4.58016 216.5 34.6 155.275 92 96.175C145 41.575 207.5 11.7762 293.363 1.275C307.263 -0.425 349.263 -0.425 361.863 1.275C396.463 5.775 424.563 13.375 453.863 26.075C464.763 30.775 484.063 40.475 487.163 42.775C488.863 44.075 488.963 51.075 489.563 184.475C490.163 332.475 490.063 338.675 485.663 359.775C481.763 379.075 475.263 394.775 464.063 411.875C440.963 447.275 405.863 472.675 365.363 482.875C343.463 488.475 323.963 489.975 318.163 486.375C309.663 481.175 309.463 466.575 317.863 461.475C319.863 460.275 324.763 459.375 332.863 458.575C371.163 454.775 402.063 439.275 427.863 410.875C442.963 394.075 453.763 371.275 458.863 345.375C460.363 337.975 460.263 63.475 458.763 61.775C457.463 60.175 435.063 50.175 423.163 45.775C350.663 19.575 276.163 22.875 204.663 55.475C111.863 97.875 46.0629 186.775 32.9629 287.375C29.4629 314.175 29.7629 337.475 33.8629 365.875C38.7629 400.275 49.4629 433.775 64.5629 462.375C69.4629 471.575 80.3629 489.375 81.0629 489.375C81.2629 489.375 81.3629 447.875 81.3629 397.175C81.3629 296.375 81.2629 297.975 87.4629 270.975C112.063 163.675 205.463 85.375 315.363 79.875C325.763 79.275 327.863 79.475 330.863 81.075C335.763 83.575 339.163 90.475 338.463 96.175C337.163 105.975 333.063 108.375 315.363 109.475C218.663 115.875 139.363 182.075 116.463 275.675C111.363 296.475 111.463 292.375 111.163 410.375C110.963 472.775 111.163 530.875 111.763 543.875C112.263 556.475 112.2 568.3 112 568.5C111.8 568.7 104.9 562 97 554.5Z" fill="#0BDAC5"/>
</svg>
